<mxfile host="app.diagrams.net" agent="Mozilla/5.0 (X11; Linux x86_64) AppleWebKit/537.36 (KHTML, like Gecko) Chrome/132.0.0.0 Safari/537.36" version="26.0.10">
  <diagram name="Page-1" id="5f0bae14-7c28-e335-631c-24af17079c00">
    <mxGraphModel dx="1467" dy="745" grid="1" gridSize="10" guides="1" tooltips="1" connect="1" arrows="1" fold="1" page="1" pageScale="1" pageWidth="1100" pageHeight="850" background="none" math="0" shadow="0">
      <root>
        <mxCell id="0" />
        <mxCell id="1" parent="0" />
        <mxCell id="39150e848f15840c-1" value="drmcli" style="verticalAlign=top;align=left;spacingTop=8;spacingLeft=2;spacingRight=12;shape=cube;size=10;direction=south;fontStyle=4;html=1;rounded=0;shadow=0;comic=0;labelBackgroundColor=none;strokeWidth=1;fontFamily=Verdana;fontSize=12" parent="1" vertex="1">
          <mxGeometry x="190" y="70" width="210" height="220" as="geometry" />
        </mxCell>
        <mxCell id="39150e848f15840c-2" value="drmchain node" style="verticalAlign=top;align=left;spacingTop=8;spacingLeft=2;spacingRight=12;shape=cube;size=10;direction=south;fontStyle=4;html=1;rounded=0;shadow=0;comic=0;labelBackgroundColor=none;strokeWidth=1;fontFamily=Verdana;fontSize=12" parent="1" vertex="1">
          <mxGeometry x="510" y="80" width="330" height="220" as="geometry" />
        </mxCell>
        <mxCell id="39150e848f15840c-7" value="Commands" style="shape=component;align=left;spacingLeft=36;rounded=0;shadow=0;comic=0;labelBackgroundColor=none;strokeWidth=1;fontFamily=Verdana;fontSize=12;html=1;" parent="1" vertex="1">
          <mxGeometry x="530" y="140" width="120" height="60" as="geometry" />
        </mxCell>
        <mxCell id="39150e848f15840c-9" value="" style="ellipse;whiteSpace=wrap;html=1;rounded=0;shadow=0;comic=0;labelBackgroundColor=none;strokeWidth=1;fontFamily=Verdana;fontSize=12;align=center;" parent="1" vertex="1">
          <mxGeometry x="430" y="155" width="10" height="10" as="geometry" />
        </mxCell>
        <mxCell id="39150e848f15840c-13" style="edgeStyle=elbowEdgeStyle;rounded=0;html=1;labelBackgroundColor=none;startArrow=none;startFill=0;startSize=8;endArrow=none;endFill=0;endSize=16;fontFamily=Verdana;fontSize=12;entryX=0;entryY=0.3;entryDx=0;entryDy=0;" parent="1" source="39150e848f15840c-9" target="39150e848f15840c-7" edge="1">
          <mxGeometry relative="1" as="geometry">
            <Array as="points">
              <mxPoint x="485" y="158" />
            </Array>
          </mxGeometry>
        </mxCell>
        <mxCell id="lRgZdli_hoI50cf0TfOX-11" style="edgeStyle=orthogonalEdgeStyle;rounded=0;orthogonalLoop=1;jettySize=auto;html=1;exitX=0.5;exitY=0;exitDx=0;exitDy=0;entryX=0.5;entryY=1;entryDx=0;entryDy=0;dashed=1;" edge="1" parent="1" source="lRgZdli_hoI50cf0TfOX-3" target="lRgZdli_hoI50cf0TfOX-4">
          <mxGeometry relative="1" as="geometry" />
        </mxCell>
        <mxCell id="lRgZdli_hoI50cf0TfOX-3" value="«component»&lt;br&gt;&lt;b&gt;CLI Interface&lt;/b&gt;" style="html=1;whiteSpace=wrap;" vertex="1" parent="1">
          <mxGeometry x="240" y="220" width="110" height="50" as="geometry" />
        </mxCell>
        <mxCell id="lRgZdli_hoI50cf0TfOX-10" style="edgeStyle=orthogonalEdgeStyle;rounded=0;orthogonalLoop=1;jettySize=auto;html=1;exitX=1;exitY=0.5;exitDx=0;exitDy=0;entryX=0;entryY=0.5;entryDx=0;entryDy=0;endArrow=halfCircle;endFill=0;" edge="1" parent="1" source="lRgZdli_hoI50cf0TfOX-4" target="39150e848f15840c-9">
          <mxGeometry relative="1" as="geometry" />
        </mxCell>
        <mxCell id="lRgZdli_hoI50cf0TfOX-4" value="«component»&lt;br&gt;&lt;b&gt;Commands&lt;br&gt;Client&lt;/b&gt;" style="html=1;whiteSpace=wrap;" vertex="1" parent="1">
          <mxGeometry x="240" y="135" width="110" height="50" as="geometry" />
        </mxCell>
        <mxCell id="lRgZdli_hoI50cf0TfOX-9" value="HTTP" style="text;html=1;align=center;verticalAlign=middle;resizable=0;points=[];autosize=1;strokeColor=none;fillColor=none;" vertex="1" parent="1">
          <mxGeometry x="415" y="190" width="50" height="30" as="geometry" />
        </mxCell>
        <mxCell id="lRgZdli_hoI50cf0TfOX-12" value="Handshake" style="shape=module;align=left;spacingLeft=20;align=center;verticalAlign=top;whiteSpace=wrap;html=1;" vertex="1" parent="1">
          <mxGeometry x="540" y="240" width="100" height="50" as="geometry" />
        </mxCell>
        <mxCell id="lRgZdli_hoI50cf0TfOX-13" value="Secure channels" style="shape=module;align=left;spacingLeft=20;align=center;verticalAlign=top;whiteSpace=wrap;html=1;" vertex="1" parent="1">
          <mxGeometry x="700" y="240" width="100" height="50" as="geometry" />
        </mxCell>
        <mxCell id="lRgZdli_hoI50cf0TfOX-16" value="drmchain node" style="verticalAlign=top;align=left;spacingTop=8;spacingLeft=2;spacingRight=12;shape=cube;size=10;direction=south;fontStyle=4;html=1;rounded=0;shadow=0;comic=0;labelBackgroundColor=none;strokeWidth=1;fontFamily=Verdana;fontSize=12" vertex="1" parent="1">
          <mxGeometry x="510" y="315" width="330" height="115" as="geometry" />
        </mxCell>
        <mxCell id="lRgZdli_hoI50cf0TfOX-21" style="edgeStyle=orthogonalEdgeStyle;rounded=0;orthogonalLoop=1;jettySize=auto;html=1;exitX=0.75;exitY=0;exitDx=0;exitDy=0;entryX=0.75;entryY=1;entryDx=0;entryDy=0;dashed=1;startArrow=classic;startFill=1;" edge="1" parent="1" source="lRgZdli_hoI50cf0TfOX-18" target="lRgZdli_hoI50cf0TfOX-12">
          <mxGeometry relative="1" as="geometry" />
        </mxCell>
        <mxCell id="lRgZdli_hoI50cf0TfOX-31" value="UDP" style="edgeLabel;html=1;align=center;verticalAlign=middle;resizable=0;points=[];" vertex="1" connectable="0" parent="lRgZdli_hoI50cf0TfOX-21">
          <mxGeometry x="0.1905" y="-1" relative="1" as="geometry">
            <mxPoint as="offset" />
          </mxGeometry>
        </mxCell>
        <mxCell id="lRgZdli_hoI50cf0TfOX-18" value="Handshake" style="shape=module;align=left;spacingLeft=20;align=center;verticalAlign=top;whiteSpace=wrap;html=1;" vertex="1" parent="1">
          <mxGeometry x="540" y="360" width="100" height="50" as="geometry" />
        </mxCell>
        <mxCell id="lRgZdli_hoI50cf0TfOX-22" style="edgeStyle=orthogonalEdgeStyle;rounded=0;orthogonalLoop=1;jettySize=auto;html=1;exitX=0.75;exitY=0;exitDx=0;exitDy=0;entryX=0.75;entryY=1;entryDx=0;entryDy=0;startArrow=classic;startFill=1;dashed=1;" edge="1" parent="1" source="lRgZdli_hoI50cf0TfOX-19" target="lRgZdli_hoI50cf0TfOX-13">
          <mxGeometry relative="1" as="geometry" />
        </mxCell>
        <mxCell id="lRgZdli_hoI50cf0TfOX-32" value="TCP" style="edgeLabel;html=1;align=center;verticalAlign=middle;resizable=0;points=[];" vertex="1" connectable="0" parent="lRgZdli_hoI50cf0TfOX-22">
          <mxGeometry x="0.0476" y="5" relative="1" as="geometry">
            <mxPoint as="offset" />
          </mxGeometry>
        </mxCell>
        <mxCell id="lRgZdli_hoI50cf0TfOX-19" value="Secure channels" style="shape=module;align=left;spacingLeft=20;align=center;verticalAlign=top;whiteSpace=wrap;html=1;" vertex="1" parent="1">
          <mxGeometry x="700" y="360" width="100" height="50" as="geometry" />
        </mxCell>
        <mxCell id="lRgZdli_hoI50cf0TfOX-23" value="shared&lt;br&gt;services" style="shape=folder;fontStyle=1;spacingTop=10;tabWidth=40;tabHeight=14;tabPosition=left;html=1;whiteSpace=wrap;" vertex="1" parent="1">
          <mxGeometry x="740" y="140" width="70" height="50" as="geometry" />
        </mxCell>
        <mxCell id="lRgZdli_hoI50cf0TfOX-24" style="edgeStyle=orthogonalEdgeStyle;rounded=0;orthogonalLoop=1;jettySize=auto;html=1;entryX=0.5;entryY=1;entryDx=0;entryDy=0;entryPerimeter=0;dashed=1;exitX=0.75;exitY=0;exitDx=0;exitDy=0;" edge="1" parent="1" source="lRgZdli_hoI50cf0TfOX-13" target="lRgZdli_hoI50cf0TfOX-23">
          <mxGeometry relative="1" as="geometry">
            <mxPoint x="765" y="250" as="sourcePoint" />
          </mxGeometry>
        </mxCell>
        <mxCell id="lRgZdli_hoI50cf0TfOX-25" value="Dependency Injection" style="edgeLabel;html=1;align=center;verticalAlign=middle;resizable=0;points=[];" vertex="1" connectable="0" parent="lRgZdli_hoI50cf0TfOX-24">
          <mxGeometry x="-0.2234" y="1" relative="1" as="geometry">
            <mxPoint as="offset" />
          </mxGeometry>
        </mxCell>
        <mxCell id="lRgZdli_hoI50cf0TfOX-27" style="edgeStyle=orthogonalEdgeStyle;rounded=0;orthogonalLoop=1;jettySize=auto;html=1;exitX=1;exitY=0.25;exitDx=0;exitDy=0;entryX=0;entryY=0;entryDx=0;entryDy=14;entryPerimeter=0;dashed=1;" edge="1" parent="1" source="39150e848f15840c-7" target="lRgZdli_hoI50cf0TfOX-23">
          <mxGeometry relative="1" as="geometry" />
        </mxCell>
        <mxCell id="lRgZdli_hoI50cf0TfOX-28" value="Dependency&lt;br&gt;Injection" style="edgeLabel;html=1;align=center;verticalAlign=middle;resizable=0;points=[];" vertex="1" connectable="0" parent="lRgZdli_hoI50cf0TfOX-27">
          <mxGeometry x="-0.1537" y="-2" relative="1" as="geometry">
            <mxPoint y="13" as="offset" />
          </mxGeometry>
        </mxCell>
        <mxCell id="lRgZdli_hoI50cf0TfOX-29" style="rounded=0;orthogonalLoop=1;jettySize=auto;html=1;exitX=1;exitY=0;exitDx=0;exitDy=0;entryX=0;entryY=0;entryDx=0;entryDy=50;entryPerimeter=0;dashed=1;" edge="1" parent="1" source="lRgZdli_hoI50cf0TfOX-12" target="lRgZdli_hoI50cf0TfOX-23">
          <mxGeometry relative="1" as="geometry" />
        </mxCell>
        <mxCell id="lRgZdli_hoI50cf0TfOX-30" value="Dependency&lt;br&gt;Injection" style="edgeLabel;html=1;align=center;verticalAlign=middle;resizable=0;points=[];" vertex="1" connectable="0" parent="lRgZdli_hoI50cf0TfOX-29">
          <mxGeometry x="0.0409" y="-3" relative="1" as="geometry">
            <mxPoint x="-18" y="3" as="offset" />
          </mxGeometry>
        </mxCell>
      </root>
    </mxGraphModel>
  </diagram>
</mxfile>
